<svg width="24" height="24" viewBox="0 0 24 24" fill="none" xmlns="http://www.w3.org/2000/svg">
<path fill-rule="evenodd" clip-rule="evenodd" d="M23.9398 12.1613C23.9453 14.0455 22.4991 15.6149 20.6241 15.7593L7.24179 16.7908C7.37345 17.9901 7.74452 17.9901 8.37893 17.9901H21.5458C21.9062 17.9763 22.2536 18.1261 22.4914 18.3979C23.7553 19.1213 24.3164 20.651 23.8208 22.0223C23.3252 23.3936 21.9167 24.2086 20.4835 23.9535C19.0504 23.6983 18.0084 22.4469 18.0147 20.9884C18.0162 20.7871 18.0362 20.5864 18.0745 20.3888H13.1669C13.1852 20.5882 13.1852 20.789 13.1669 20.9884C13.1669 22.6444 11.8271 23.9868 10.1744 23.9868C8.52171 23.9868 7.18194 22.6444 7.18194 20.9884C7.18276 20.7454 7.21495 20.5036 7.2777 20.2688C4.78796 19.6812 4.78796 17.0906 4.78796 15.6874L2.57353 2.39877H1.19699C0.53591 2.39877 0 1.86181 0 1.19943C0 0.53706 0.53591 0.000100734 1.19699 0.000100734H3.59097C4.18395 -0.00754624 4.69312 0.420997 4.78796 1.00754L5.00342 2.39877L22.8266 3.5981C23.4547 3.64226 23.9413 4.16651 23.9398 4.79743V12.1613ZM21.5459 20.9884C21.5459 20.6573 21.2779 20.3888 20.9474 20.3888C20.6168 20.3888 20.3489 20.6573 20.3489 20.9884C20.3489 21.3196 20.6168 21.5881 20.9474 21.5881C21.2779 21.5881 21.5459 21.3196 21.5459 20.9884ZM10.1744 20.3888C10.505 20.3888 10.7729 20.6573 10.7729 20.9884C10.7729 21.3196 10.505 21.5881 10.1744 21.5881C9.84388 21.5881 9.57593 21.3196 9.57593 20.9884C9.57593 20.6573 9.84388 20.3888 10.1744 20.3888ZM7.0024 14.3921H7.08619L20.4446 13.3727C21.068 13.3225 21.5478 12.8 21.5458 12.1733V5.9248L5.4104 4.79743L7.0024 14.3921Z" fill="white"/>
</svg>
